#!OML:ASF F:\VICON\USERDATA\INSTALL\rory3\rory3.ASF
:FULLY-SPECIFIED
:DEGREES
662
root 7.38183 14.8288 -12.4499 -360.694 -37.7251 355.195
lowerback 17.7429 0.471069 -5.88125
upperback -1.68805 -0.243091 3.61886
thorax -11.882 0.42454 7.49524
lowerneck -11.3585 -6.91647 -3.15524
upperneck 20.7376 -9.84546 3.21508
head 8.65486 -4.6232 0.511765
rclavicle -1.70869e-014 -6.55989e-015
rhumerus -6.60766 -10.8813 -12.5649
rradius 47.0052
rwrist 5.47151
rhand -0.764389 24.2442
rfingers 7.12502
rthumb 24.858 -4.15971
lclavicle -1.70869e-014 -6.55989e-015
lhumerus 19.2169 6.69793 33.9897
lradius 49.1317
lwrist -4.45537
lhand -7.92275 12.5824
lfingers 7.12502
lthumb 17.9832 41.771
rfemur -7.2655 0.435467 -5.62904
rtibia 36.2176
rfoot -9.87972 -19.6378
rtoes 26.3366
lfemur -29.2672 24.7865 -22.5933
ltibia 64.1361
lfoot -31.6299 4.93515
ltoes 17.7718
663
root 7.4145 14.8363 -12.4207 -360.545 -38.088 355.095
lowerback 17.7336 0.43882 -5.72379
upperback -1.69481 -0.258004 3.56153
thorax -11.8807 0.404417 7.34129
lowerneck -11.1272 -6.93833 -3.14925
upperneck 20.5404 -9.92458 3.44443
head 8.56087 -4.64532 0.589302
rclavicle 1.11413e-014 -1.64991e-014
rhumerus -6.60987 -11.1798 -12.7621
rradius 47.0333
rwrist 5.78603
rhand -0.957371 24.2956
rfingers 7.12502
rthumb 24.6731 -4.13372
lclavicle 1.11413e-014 -1.64991e-014
lhumerus 19.2101 6.87575 33.9958
lradius 49.1142
lwrist -4.12991
lhand -7.86644 12.7523
lfingers 7.12502
lthumb 18.0373 41.9359
rfemur -7.60845 0.355884 -5.62329
rtibia 36.1168
rfoot -10.0364 -20.4162
rtoes 28.4692
lfemur -29.2729 25.0533 -22.6919
ltibia 64.0587
lfoot -31.745 4.8431
ltoes 18.6571
664
root 7.4369 14.8448 -12.3703 -360.504 -38.8917 354.914
lowerback 17.1548 0.364866 -5.46638
upperback -1.37723 -0.280301 3.52428
thorax -11.1775 0.332553 7.12222
lowerneck -10.5742 -6.77527 -3.21972
upperneck 19.9168 -9.70818 3.68011
head 8.25826 -4.54561 0.733396
rclavicle -3.10213e-014 -1.5704e-014
rhumerus -6.07958 -11.7127 -13.1996
rradius 46.9295
rwrist 5.71444
rhand -0.637966 24.6104
rfingers 7.12502
rthumb 24.9792 -3.77669
lclavicle -3.10213e-014 -1.5704e-014
lhumerus 18.7083 7.1111 33.4222
lradius 49.2576
lwrist -3.41989
lhand -7.56229 12.8363
lfingers 7.12502
lthumb 18.33 41.9927
rfemur -8.03036 0.559201 -5.49206
rtibia 36.1068
rfoot -9.58515 -20.928
rtoes 26.7956
lfemur -28.8063 25.8557 -22.5448
ltibia 63.8767
lfoot -32.0342 4.85969
ltoes 18.3504
665
root 7.4666 14.8278 -12.3349 -360.67 -39.1547 355.297
lowerback 17.0193 0.226712 -5.40959
upperback -1.38207 -0.469188 3.31217
thorax -11.0733 0.226854 6.89323
lowerneck -11.0774 -6.81863 -3.37965
upperneck 20.5539 -9.80414 3.8212
head 8.58481 -4.57105 0.765046
rclavicle 4.82954e-014 1.96797e-014
rhumerus -6.06494 -11.5089 -13.3868
rradius 47.0493
rwrist 5.3656
rhand -1.12526 24.1302
rfingers 7.12502
rthumb 24.5121 -4.32099
lclavicle 4.82954e-014 1.96797e-014
lhumerus 18.2873 7.02027 33.2338
lradius 48.8969
lwrist -2.70928
lhand -8.36698 12.7258
lfingers 7.12502
lthumb 17.5557 41.9531
rfemur -8.34125 0.223612 -6.06101
rtibia 36.206
rfoot -11.9799 -19.5786
rtoes 35.4015
lfemur -28.7878 25.8067 -23.1448
ltibia 63.7894
lfoot -32.2874 5.07487
ltoes 18.7281
666
root 7.4897 14.829 -12.3037 -360.838 -39.6713 355.468
lowerback 17.0634 0.202647 -5.67101
upperback -1.27201 -0.560034 3.29226
thorax -10.959 0.1905 7.0444
lowerneck -11.1151 -6.88059 -3.06255
upperneck 20.4009 -9.85414 3.43638
head 8.50372 -4.61043 0.583661
rclavicle -1.44274e-014 -2.3059e-014
rhumerus -5.81254 -11.5832 -13.5456
rradius 47.198
rwrist 4.48091
rhand -0.995912 24.0839
rfingers 7.12502
rthumb 24.6361 -4.35052
lclavicle -1.44274e-014 -2.3059e-014
lhumerus 18.012 7.59206 33.2952
lradius 49.0801
lwrist -2.46661
lhand -7.95998 12.8746
lfingers 7.12502
lthumb 17.9473 42.0665
rfemur -8.68032 0.273216 -6.25744
rtibia 36.2888
rfoot -11.2706 -20.5174
rtoes 33.4824
lfemur -28.4631 26.2266 -23.3501
ltibia 63.5544
lfoot -32.3813 5.21573
ltoes 18.5923
